<svg viewBox="0 0 681.5 84.4" version="1.1" xmlns="http://www.w3.org/2000/svg">
  <defs>
    <style>
      .cls-1 {
        fill: #ffa7ca;
      }
    </style>
  </defs>
  
  <g>
    <g id="Layer_1">
      <g>
        <path d="M39.1,52.4c-2.8-1.7-6.1-3-10.1-4.2-4-1.1-7.9-2.4-11.9-3.9-3.9-1.5-7.3-4-10.1-7.5-2.8-3.5-4.2-7.8-4.2-13.2s2.7-12.1,8-16.8C16.2,2.3,23.1,0,31.6,0s6.6.4,9.7,1.2,5.7,1.7,7.7,2.7c2,1,3.8,2.1,5.2,3.2s2.6,2,3.2,2.8l1,1.1-10.5,11c-.5-.5-1.1-1.2-1.9-2s-2.5-1.8-5.2-3.1c-2.6-1.3-5.3-1.9-8.1-1.9s-6,.9-8.1,2.5c-2,1.7-3,3.7-3,6.1s1.4,4.9,4.1,6.5c2.8,1.6,6.1,3,10,4.1s7.9,2.5,11.9,4c4,1.5,7.3,4,10.1,7.5,2.8,3.5,4.2,7.8,4.2,13.1s-2.8,13.6-8.2,18.3-13.1,7.1-22.7,7.1-7.5-.5-11-1.4c-3.6-.9-6.5-2-8.8-3.3-2.3-1.3-4.3-2.6-6.1-3.9s-3-2.4-3.8-3.3l-1.3-1.4,10.6-10.4c.5.6,1.3,1.4,2.2,2.3s3.1,2.2,6.5,3.9,6.9,2.4,10.5,2.4,7.5-1,9.9-2.9c2.4-2,3.6-4.4,3.6-7.5,0-2.7-1.4-4.9-4.1-6.5Z" class="cls-1"></path>
        <path d="M222.9.8c8.5,0,15.6,2.7,21.1,8,5.6,5.4,8.4,12,8.4,19.9s-2.8,14.5-8.4,19.9c-5.6,5.4-12.6,8-21.2,8h-17.1v27.3h-17.8V.8h34.8ZM205.8,16.9v23.7h16.5c3.5,0,6.5-1.1,8.9-3.4s3.6-5.1,3.6-8.4-1.2-6.1-3.6-8.4c-2.4-2.3-5.3-3.5-8.9-3.5,0,0-16.5,0-16.5,0Z" class="cls-1"></path>
        <path d="M312.8.8c8.5,0,15.5,2.7,21.1,8,5.6,5.4,8.4,12,8.4,19.9s-2.8,14.5-8.4,19.9c-5.6,5.4-12.6,8-21.2,8h-17.1v27.3h-17.8V.8h34.8ZM295.7,16.9v23.7h16.5c3.5,0,6.5-1.1,8.9-3.4,2.4-2.3,3.5-5.1,3.5-8.4s-1.2-6.1-3.5-8.4-5.3-3.5-8.9-3.5c0,0-16.5,0-16.5,0Z" class="cls-1"></path>
        <path d="M575.7,52.8c2-1.1,3.9-2.5,5.6-4.2.2-.2.3-.3.5-.5h0c5.2-5.3,7.8-11.8,7.8-19.4s-2.8-14.5-8.4-19.9c-5.6-5.4-12.6-8-21.1-8h-34.8v83.2h17.8v-27.3h16.3l14.9,27.3h18.9l-17.5-31.2ZM543,40.6v-23.7h16.5c3.5,0,6.5,1.1,8.9,3.5.6.6,1.1,1.1,1.5,1.8.8,1.1,1.3,2.3,1.7,3.6.2,1,.4,2,.4,3.1,0,2.1-.5,4-1.5,5.7,0,0,0,0,0,0-.5.9-1.2,1.8-2.1,2.6-2.4,2.3-5.3,3.4-8.9,3.4h-16.5Z" class="cls-1"></path>
        <path d="M473.5.8h17.8v83.2h-17.8V.8Z" class="cls-1"></path>
        <polygon points="421.7 .9 421.7 32.4 421.7 32.4 421.7 33.1 386.4 33.1 386.4 .9 368.6 .9 368.6 84.1 386.4 84.1 386.4 48.8 421.7 48.8 421.7 84.1 439.5 84.1 439.5 .9 421.7 .9" class="cls-1"></polygon>
        <polygon points="637.3 68 637.3 57.5 637.3 48.8 638.9 48.8 670.9 48.8 670.9 32.9 637.3 32.9 637.3 26.5 637.3 16.9 680.3 16.9 680.3 .8 619.5 .8 619.5 84 681.5 84 681.5 68 637.3 68" class="cls-1"></polygon>
        <path d="M131.3.8h-18.5l-31.9,83.2h18.6l7-19.6h31.3l7,19.6h18.6L131.3.8ZM122.1,21.6l9.8,27.1h-19.6l9.8-27.1Z" class="cls-1"></path>
      </g>
    </g>
  </g>
</svg>